<?xml version="1.0" encoding="UTF-8" standalone="no"?>
<svg
   class="topography-shape js-shape"
   width="1200px"
   height="580px"
   viewBox="0 0 1200 580"
   version="1.1"
   id="svg28"
   sodipodi:docname="background.svg"
   inkscape:version="1.2.2 (732a01da63, 2022-12-09)"
   xmlns:inkscape="http://www.inkscape.org/namespaces/inkscape"
   xmlns:sodipodi="http://sodipodi.sourceforge.net/DTD/sodipodi-0.dtd"
   xmlns="http://www.w3.org/2000/svg"
   xmlns:svg="http://www.w3.org/2000/svg">
  <defs
     id="defs32" />
  <sodipodi:namedview
     id="namedview30"
     pagecolor="#ffffff"
     bordercolor="#000000"
     borderopacity="0.25"
     inkscape:showpageshadow="2"
     inkscape:pageopacity="0.0"
     inkscape:pagecheckerboard="0"
     inkscape:deskcolor="#d1d1d1"
     showgrid="false"
     inkscape:zoom="0.71299934"
     inkscape:cx="985.97567"
     inkscape:cy="145.86269"
     inkscape:window-width="2560"
     inkscape:window-height="1377"
     inkscape:window-x="-8"
     inkscape:window-y="311"
     inkscape:window-maximized="1"
     inkscape:current-layer="svg28" />
  <path
     d="m 486.44439,-59.428225 c -33.36157,60.6645146 -27.0525,98.698268 18.92372,114.10126 68.96608,23.104488 232.95309,32.346087 301.49942,82.465765 68.54399,50.11869 277.54447,11.37337 313.28847,-74.646329 35.7441,-86.019695 100.1011,-218.604151 -239.25979,-218.604151 -226.24287,0 -357.7241,32.22716 -394.45066,96.683455 z"
     fill="#fffa72"
     fill-rule="nonzero"
     id="path2"
     style="stroke-width:1.06901" />
  <path
     d="M -4.4844588,60.349498 C 18.124283,230.21014 108.52939,336.70465 266.7211,379.83303 c 237.29244,64.69256 714.13066,90.56904 1001.9144,230.90413 287.7754,140.33235 798.8762,31.84543 734.4465,-209.00971 -64.4298,-240.85515 -137.7986,-612.09163 -1088.00887,-612.09163 -633.48003,0 -939.992885,90.23606 -919.5543331,270.713678 z"
     fill="#FFFA72"
     fill-rule="nonzero"
     style="fill:#c7e1f3;stroke-width:2.99324"
     id="path4" />
  <path
     d="M 32.335241,50.368021 C 42.933252,211.12898 121.72442,311.91843 268.69952,352.73636 c 220.46727,61.22689 670.11539,85.71713 933.55988,218.53427 263.4367,132.81454 754.0545,30.13943 708.3897,-197.81276 -45.6649,-227.9522 -91.5005,-579.30101 -990.80661,-579.30101 -599.5436,0 -895.373234,85.40198 -887.504168,256.211161 z"
     fill="#FFFA72"
     fill-rule="nonzero"
     style="fill:#b8cfe6;stroke-width:2.83289"
     id="path6" />
  <path
     d="M 70.087928,40.386544 C 70.350632,192.04783 138.57828,287.13221 274.76217,325.63969 c 204.28019,57.76122 626.99345,80.86522 867.48273,206.16441 240.4821,125.29674 709.547,28.43342 680.2714,-186.61582 -29.2756,-215.04923 -51.2397,-546.51038 -899.64167,-546.51038 -565.60717,0 -849.863521,80.56791 -852.783795,241.708644 z"
     fill="#FFFA72"
     fill-rule="nonzero"
     style="fill:#a9beda;stroke-width:2.67253"
     id="path8" />
  <path
     d="M 108.69454,30.405067 C 100.15538,172.96668 158.78091,262.346 284.56293,298.54303 c 188.67714,54.29555 584.68912,76.0133 803.49017,193.79454 218.7945,117.77893 665.327,26.72742 650.2663,-175.41887 -15.0608,-202.14628 -16.5047,-513.71976 -814.0026,-513.71976 -531.67074,0 -803.5392,75.73384 -815.61953,227.206127 z"
     fill="#FFFA72"
     fill-rule="nonzero"
     style="fill:#9aadce;stroke-width:2.51218"
     id="path10" />
  <path
     d="m 148.08848,20.42359 c -15.92717,133.46193 33.98266,217.13619 149.7218,251.02277 173.61255,50.82988 543.13866,71.16139 741.41962,181.42468 198.2749,110.26113 621.372,25.02141 618.5212,-164.22192 -2.8507,-189.243327 13.1356,-480.92913 -733.45812,-480.92913 -497.73431,0 -756.46381,70.89976 -776.20194,212.7036 z"
     fill="#FFFA72"
     fill-rule="nonzero"
     style="fill:#8b9bc1;stroke-width:2.35183"
     id="path12" />
  <path
     d="M 188.2136,10.442113 C 166.21148,134.80437 208.22882,212.77356 314.25847,244.3497 c 159.04805,47.3642 502.28832,66.30947 681.13391,169.05481 178.84012,102.74332 577.66312,23.31541 585.16082,-153.02497 7.4975,-176.340374 38.0441,-448.13851 -657.64551,-448.13851 -463.79788,0 -708.69086,66.06568 -734.6917,198.201083 z"
     fill="#FFFA72"
     fill-rule="nonzero"
     style="fill:#7d8ab5;stroke-width:2.19148"
     id="path14" />
  <path
     d="M 229.02266,0.46063615 C 202.17378,115.72321 237.06864,187.98735 333.70064,217.25303 c 144.95131,43.89853 462.09283,61.45757 622.5178,156.68495 160.41996,95.22552 534.18466,21.6094 550.28886,-141.82802 16.1043,-163.437422 58.5271,-415.34789 -586.25837,-415.34789 -429.86145,0 -660.26545,61.23161 -691.22406,183.69856615 z"
     fill="#FFFA72"
     fill-rule="nonzero"
     style="fill:#6e79a9;stroke-width:2.03113"
     id="path16" />
  <path
     d="M 270.47603,-9.5208407 C 239.93738,96.64206 268.43516,163.20113 355.96329,190.15636 c 131.29524,40.43286 422.51426,56.60566 565.4745,144.31509 142.95571,87.70772 490.92301,19.90339 513.99341,-130.63107 23.0703,-150.534469 74.8407,-382.55727 -519.04071,-382.55727 -395.92502,0 -611.2254,56.39754 -645.91243,169.1960493 z"
     fill="#FFFA72"
     fill-rule="nonzero"
     style="fill:#5f679c;stroke-width:1.87077"
     id="path18" />
  <path
     d="m 312.54069,-19.502318 c -33.13068,97.063224 -10.34174,157.917228 68.36122,182.562018 118.05724,36.96718 383.52101,51.75374 509.92343,131.94522 126.39836,80.18991 447.86726,18.19739 476.34716,-119.43412 28.4799,-137.631516 87.1987,-349.76665 -455.77867,-349.76665 -361.98859,0 -561.60219,51.56346 -598.85127,154.693532 z"
     fill="#FFFA72"
     fill-rule="nonzero"
     style="fill:#505690;stroke-width:1.71042"
     id="path20" />
  <path
     d="m 355.18947,-29.483795 c -34.67377,87.963547 -16.93604,143.112485 53.20809,165.446825 105.21875,33.50151 345.08705,46.90183 455.79827,119.57536 110.70764,72.67211 405.00807,16.49138 437.41027,-108.23717 32.402,-124.728563 95.7767,-316.97603 -396.29654,-316.97603 -328.05216,0 -511.42174,46.72939 -550.11841,140.191015 z"
     fill="#FFFA72"
     fill-rule="nonzero"
     style="fill:#414584;stroke-width:1.55007"
     id="path22" />
  <path
     d="m 398.40042,-39.465271 c -35.20733,78.863869 -21.8879,128.307748 39.95374,148.331641 92.76473,30.03583 307.19135,42.04991 403.04542,107.20549 95.85093,65.1543 362.33822,14.78538 397.23102,-97.04023 34.8929,-111.8255999 100.717,-284.18539 -340.45207,-284.18539 -294.11573,0 -460.705,41.89531 -499.7766,125.688489 z"
     fill="#FFFA72"
     fill-rule="nonzero"
     style="fill:#323377;stroke-width:1.38972"
     id="path24" />
  <path
     d="M 442.15633,-49.446748 C 407.39408,20.317444 416.90876,64.05626 470.69637,81.769701 551.3798,108.33986 740.51382,118.9677 822.31927,176.60533 904.12198,234.24183 1142.171,189.6847 1178.167,90.762053 1214.163,-8.1605969 1280.2978,-160.63272 890.03279,-160.63272 c -260.1793,0 -409.46837,37.06124 -447.87513,111.185972 z"
     fill="#FFFA72"
     fill-rule="nonzero"
     style="fill:#23226b;stroke-width:1.22937"
     id="path26" />
</svg>
