<?xml version="1.0" encoding="UTF-8" standalone="no"?>
<svg
   class="topography-shape js-shape"
   width="1200px"
   height="580px"
   viewBox="0 0 1200 580"
   version="1.1"
   id="svg28"
   sodipodi:docname="background.svg"
   inkscape:version="1.2.2 (732a01da63, 2022-12-09)"
   xmlns:inkscape="http://www.inkscape.org/namespaces/inkscape"
   xmlns:sodipodi="http://sodipodi.sourceforge.net/DTD/sodipodi-0.dtd"
   xmlns="http://www.w3.org/2000/svg"
   xmlns:svg="http://www.w3.org/2000/svg">
  <defs
     id="defs32" />
  <sodipodi:namedview
     id="namedview30"
     pagecolor="#ffffff"
     bordercolor="#000000"
     borderopacity="0.25"
     inkscape:showpageshadow="2"
     inkscape:pageopacity="0.0"
     inkscape:pagecheckerboard="0"
     inkscape:deskcolor="#d1d1d1"
     showgrid="false"
     inkscape:zoom="0.35649967"
     inkscape:cx="187.93846"
     inkscape:cy="86.956602"
     inkscape:window-width="2560"
     inkscape:window-height="1377"
     inkscape:window-x="-8"
     inkscape:window-y="311"
     inkscape:window-maximized="1"
     inkscape:current-layer="svg28" />
  <path
     d="M 840.33476,-29.180292 C 879.21594,31.484223 871.86302,69.517976 818.28019,84.920968 737.90387,108.02546 546.78574,117.26706 466.89868,167.38674 387.01428,217.50543 143.43533,178.76011 101.7776,92.740404 60.119751,6.7207097 -14.884906,-125.86374 380.62216,-125.86374 c 263.67407,0 416.90842,32.227156 459.71132,96.683448 z"
     fill="#fffa72"
     fill-rule="nonzero"
     id="path2"
     style="stroke-width:1.15406" />
  <path
     d="M 1412.4862,90.597431 C 1386.1369,260.45808 1280.7745,366.95259 1096.4106,410.08097 819.85891,474.77353 264.12923,500.65001 -71.26736,640.9851 -406.65429,781.31745 -1002.3151,672.83053 -927.2257,431.97539 c 75.0895,-240.85515 160.59694,-612.09163 1268.0165,-612.09163 738.2873,0 1095.5117,90.236056 1071.6916,270.713671 z"
     fill="#FFFA72"
     fill-rule="nonzero"
     style="fill:#c7e1f3;stroke-width:3.23138"
     id="path4" />
  <path
     d="M 1369.5749,80.615954 C 1357.2235,241.37692 1265.3964,342.16637 1094.1048,382.9843 837.16194,444.21119 313.12099,468.70143 6.0904568,601.51857 -300.93101,734.33311 -872.71997,631.658 -819.50008,403.70581 c 53.22002,-227.9522 106.63898,-579.30101 1154.7324,-579.30101 698.73608,0 1043.50988,85.401976 1034.33898,256.211154 z"
     fill="#FFFA72"
     fill-rule="nonzero"
     style="fill:#b8cfe6;stroke-width:3.05827"
     id="path6" />
  <path
     d="M 1325.5761,70.634477 C 1325.2699,222.29577 1245.7542,317.38015 1087.0391,355.88763 848.9614,413.64885 356.31164,436.75285 76.034161,562.05204 -204.23494,687.34878 -750.90514,590.48546 -716.78599,375.43622 c 34.11916,-215.04923 59.71715,-546.51038 1048.48456,-546.51038 659.18496,0 990.47073,80.567906 993.87413,241.708637 z"
     fill="#FFFA72"
     fill-rule="nonzero"
     style="fill:#a9beda;stroke-width:2.88516"
     id="path8" />
  <path
     d="m 1280.5821,60.653 c 9.9519,142.56162 -58.373,231.94094 -204.9652,268.13797 -219.89323,54.29555 -681.42404,76.0133 -936.42508,193.79454 -254.99335,117.77893 -775.40323,26.72742 -757.8508,-175.41887 17.55257,-202.14628 19.23535,-513.71976 948.67674,-513.71976 619.63397,0 936.48224,75.733836 950.56114,227.20612 z"
     fill="#FFFA72"
     fill-rule="nonzero"
     style="fill:#9aadce;stroke-width:2.71204"
     id="path10" />
  <path
     d="M 1234.6705,50.671523 C 1253.2328,184.13346 1195.0656,267.80772 1060.1778,301.6943 857.84164,352.52418 427.17862,372.85569 196.09267,483.11898 -34.986183,593.38011 -528.08336,508.14039 -524.76091,318.89706 c 3.32235,-189.24333 -15.30884,-480.92913 854.8064,-480.92913 580.08284,0 881.61831,70.899756 904.62221,212.703593 z"
     fill="#FFFA72"
     fill-rule="nonzero"
     style="fill:#8b9bc1;stroke-width:2.53894"
     id="path12" />
  <path
     d="M 1187.9069,40.690046 C 1213.5491,165.05231 1164.5803,243.0215 1041.0082,274.59764 855.64628,321.96184 455.61797,340.90711 247.18293,443.65245 38.754321,546.39577 -426.05269,466.96786 -434.79085,290.62748 c -8.73794,-176.34038 -44.33838,-448.13851 766.45084,-448.13851 540.5318,0 825.94151,66.065676 856.24411,198.201076 z"
     fill="#FFFA72"
     fill-rule="nonzero"
     style="fill:#7d8ab5;stroke-width:2.36583"
     id="path14" />
  <path
     d="m 1140.3461,30.70857 c 31.2909,115.26258 -9.3771,187.52672 -121.9966,216.7924 -168.933,43.89853 -538.54466,61.45757 -725.51136,156.68495 -186.96097,95.22552 -622.56385,21.6094 -641.33244,-141.82802 -18.7687,-163.437429 -68.21022,-415.34789 683.25298,-415.34789 500.98061,0 769.50412,61.231606 805.58472,183.69856 z"
     fill="#FFFA72"
     fill-rule="nonzero"
     style="fill:#6e79a9;stroke-width:2.19272"
     id="path16" />
  <path
     d="M 1092.0344,20.727093 C 1127.6255,126.89 1094.4129,193.44907 992.40353,220.4043 839.38597,260.83716 499.98571,277.00996 333.37308,364.71939 c -166.60725,87.70772 -572.14464,19.90339 -599.03197,-130.63107 -26.8872,-150.534476 -87.22285,-382.55727 604.91434,-382.55727 461.42952,0 712.35065,56.397536 752.77655,169.196043 z"
     fill="#FFFA72"
     fill-rule="nonzero"
     style="fill:#5f679c;stroke-width:2.0196"
     id="path18" />
  <path
     d="m 1043.0102,10.745616 c 38.6121,97.063224 12.0529,157.917234 -79.67127,182.562024 -137.58939,36.96718 -446.97333,51.75374 -594.28861,131.94522 -147.3106,80.18991 -521.9655,18.19739 -555.15731,-119.43412 -33.19182,-137.631523 -101.62545,-349.76665 531.18582,-349.76665 421.87846,0 654.51746,51.563456 697.92917,154.693526 z"
     fill="#FFFA72"
     fill-rule="nonzero"
     style="fill:#505690;stroke-width:1.8465"
     id="path20" />
  <path
     d="M 993.30543,0.76413826 C 1033.7158,88.727685 1013.0435,143.87663 931.29413,166.21097 808.66736,199.71248 529.1136,213.1128 400.08559,285.78633 271.06165,358.45844 -71.9298,302.27771 -109.69284,177.54916 -147.45564,52.82059 -221.3155,-139.42687 352.16964,-139.42687 c 382.3274,0 596.03489,46.729386 641.13389,140.19100826 z"
     fill="#FFFA72"
     fill-rule="nonzero"
     style="fill:#414584;stroke-width:1.6734"
     id="path22" />
  <path
     d="M 942.94533,-9.2173377 C 983.97763,69.646531 968.45453,119.09041 896.38134,139.11431 788.26901,169.15014 538.3662,181.16422 426.65335,246.3198 314.94422,311.4741 4.3674598,261.10518 -36.298243,149.27957 -76.964064,37.453964 -153.67855,-134.90582 360.48056,-134.90582 c 342.77621,0 536.92718,41.895306 582.46307,125.6884823 z"
     fill="#FFFA72"
     fill-rule="nonzero"
     style="fill:#323377;stroke-width:1.50028"
     id="path24" />
  <path
     d="M 891.95018,-19.198815 C 932.46363,50.565377 921.37483,94.304193 858.68822,112.01764 764.656,138.5878 544.23038,149.21564 448.89043,206.85327 353.55373,264.48977 76.120281,219.93264 34.168871,121.00999 -7.7825568,22.087337 -84.859149,-130.38478 369.97394,-130.38478 c 303.22514,0 477.21364,37.061236 521.97461,111.185965 z"
     fill="#FFFA72"
     fill-rule="nonzero"
     style="fill:#23226b;stroke-width:1.32718"
     id="path26" />
</svg>
